<svg width="20" height="20" viewBox="0 0 20 20" fill="none" xmlns="http://www.w3.org/2000/svg">
<path fill-rule="evenodd" clip-rule="evenodd" d="M9.75015 2C9.24254 2 8.7399 2.09998 8.27093 2.29423C7.80196 2.48849 7.37584 2.77321 7.01691 3.13214C6.65798 3.49108 6.37325 3.9172 6.179 4.38617C5.98475 4.85514 5.88477 5.35777 5.88477 5.86538C5.88477 6.37299 5.98475 6.87563 6.179 7.3446C6.37325 7.81357 6.65798 8.23969 7.01691 8.59862C7.37584 8.95756 7.80196 9.24228 8.27093 9.43653C8.7399 9.63079 9.24254 9.73077 9.75015 9.73077C10.2578 9.73077 10.7604 9.63079 11.2294 9.43653C11.6983 9.24228 12.1245 8.95756 12.4834 8.59862C12.8423 8.23969 13.127 7.81357 13.3213 7.3446C13.5156 6.87563 13.6155 6.37299 13.6155 5.86538C13.6155 5.35778 13.5156 4.85514 13.3213 4.38617C13.127 3.9172 12.8423 3.49108 12.4834 3.13214C12.1245 2.77321 11.6983 2.48849 11.2294 2.29423C10.7604 2.09998 10.2578 2 9.75015 2ZM8.84496 3.68005C9.13194 3.56118 9.43952 3.5 9.75015 3.5C10.0608 3.5 10.3684 3.56118 10.6553 3.68005C10.9423 3.79893 11.2031 3.97316 11.4227 4.1928C11.6424 4.41245 11.8166 4.67321 11.9355 4.96019C12.0544 5.24717 12.1155 5.55476 12.1155 5.86538C12.1155 6.17601 12.0544 6.4836 11.9355 6.77058C11.8166 7.05756 11.6424 7.31832 11.4227 7.53796C11.2031 7.75761 10.9423 7.93184 10.6553 8.05071C10.3684 8.16959 10.0608 8.23077 9.75015 8.23077C9.43952 8.23077 9.13194 8.16959 8.84496 8.05071C8.55798 7.93184 8.29722 7.75761 8.07757 7.53796C7.85792 7.31832 7.68369 7.05756 7.56482 6.77058C7.44595 6.4836 7.38477 6.17601 7.38477 5.86538C7.38477 5.55476 7.44595 5.24717 7.56482 4.96019C7.68369 4.67321 7.85792 4.41245 8.07757 4.1928C8.29722 3.97316 8.55797 3.79893 8.84496 3.68005Z" fill="#676879"/>
<path fill-rule="evenodd" clip-rule="evenodd" d="M9.33935 10.6814C9.3512 10.6809 9.36306 10.6807 9.37491 10.6807H10.1247C10.1384 10.6807 10.152 10.681 10.1655 10.6816C11.2943 10.7273 12.3913 11.0277 13.3525 11.5543C14.3151 12.0816 15.1096 12.8184 15.6604 13.6945C16.2113 14.5705 16.5003 15.557 16.5 16.5599V17.2483C16.5 17.6358 16.1456 17.9499 15.7084 17.9499H10.1251L10.1201 17.9499H3.79163C3.35443 17.9499 3 17.6358 3 17.2483V16.5599C2.9997 15.557 3.2887 14.5705 3.83955 13.6945C4.39044 12.8184 5.18491 12.0816 6.14751 11.5543C7.1101 11.0269 8.20884 10.7264 9.33935 10.6814ZM9.39335 12.0839H10.1063C10.9613 12.1205 11.7918 12.3489 12.52 12.7479C13.253 13.1494 13.858 13.7104 14.2774 14.3776C14.6946 15.0409 14.9145 15.7874 14.9167 16.5467H10.1296L10.1247 16.5467H4.58328C4.58548 15.7874 4.80542 15.0409 5.22255 14.3775C5.64204 13.7104 6.247 13.1494 6.97999 12.7479C7.70811 12.3489 8.53853 12.1205 9.39335 12.0839ZM4.58326 16.5568L4.58328 16.5467C4.58327 16.55 4.58327 16.5534 4.58326 16.5568ZM14.9167 16.5568C14.9167 16.5534 14.9167 16.5501 14.9167 16.5467L14.9167 16.5568Z" fill="#676879"/>
</svg>
